<?xml version="1.0" standalone="no"?>
<!DOCTYPE svg PUBLIC "-//W3C//DTD SVG 20010904//EN"
 "http://www.w3.org/TR/2001/REC-SVG-20010904/DTD/svg10.dtd">
<svg version="1.0" xmlns="http://www.w3.org/2000/svg"
 width="32.000000pt" height="32.000000pt" viewBox="0 0 32.000000 32.000000"
 preserveAspectRatio="xMidYMid meet">

<g transform="translate(0.000000,32.000000) scale(0.100000,-0.100000)"
fill="#000000" stroke="none">
<path d="M72 158 c27 -62 53 -121 55 -130 4 -12 15 -18 33 -18 24 0 30 8 58
72 17 40 42 99 56 131 l26 58 -22 -3 c-17 -2 -31 -24 -66 -105 -25 -57 -47
-103 -51 -103 -3 0 -26 48 -49 105 -38 91 -47 105 -67 105 -24 0 -23 -2 27
-112z"/>
</g>
</svg>
