<?xml version="1.0" encoding="UTF-8"?> <svg xmlns="http://www.w3.org/2000/svg" viewBox="0 0 458.74 87.87"><defs><style>.cls-1,.cls-2{fill-rule:evenodd;}.cls-2{fill:#837f79;}</style></defs><g id="Layer_2" data-name="Layer 2"><g id="Ebene_1" data-name="Ebene 1"><path id="Fill-1" class="cls-1" d="M0,86.48H12.25V57.39h13L41.73,86.48H55.08L37.75,55.8C48,53.31,54.08,46.64,54.08,34.89c0-15-10.16-22.11-27.69-22.11H0ZM12.25,46.54V24.13H25.8c10.55,0,16,2.59,16,11.05,0,8.77-5.58,11.36-15.93,11.36Z"></path><polygon id="Fill-2" class="cls-1" points="73.6 86.48 86.15 86.48 86.15 12.78 73.6 12.78 73.6 86.48"></polygon><polygon id="Fill-3" class="cls-1" points="126.39 86.78 138.14 86.78 163.74 12.78 151.98 12.78 132.66 70.24 132.46 70.24 113.44 12.78 100.79 12.78 126.39 86.78"></polygon><path id="Fill-4" class="cls-1" d="M166.72,86.48h11.66L184.45,69h28l6,17.53h12.74l-26.09-74H192.82ZM188.24,58,198.5,28.11h.19L208.75,58Z"></path><path id="Fill-5" class="cls-1" d="M273.79,87.87c17,0,26.09-9.86,29.68-24.5l-11.85-2.69c-2.79,11.06-8.17,15.84-17.73,15.84-12.45,0-19.92-9.66-19.92-27.19,0-16.73,7.27-26.4,19.72-26.4,9.76,0,14,5,16.83,14.74l11.86-3.38c-3.29-13.45-11.46-22.91-28.59-22.91-18.52,0-32.37,13.35-32.37,38.05C241.42,74.82,254.87,87.87,273.79,87.87Z"></path><path id="Fill-6" class="cls-1" d="M349.19,87.87c18.62,0,33.16-13.44,33.16-38.24s-14.54-38.25-33.16-38.25-33.37,13.45-33.37,38.25S330.46,87.87,349.19,87.87Zm0-11.25c-12.55,0-20.82-9.66-20.82-27s8.27-26.8,20.82-26.8c12.35,0,20.61,9.47,20.61,26.8S361.54,76.62,349.19,76.62Z"></path><polygon id="Fill-7" class="cls-1" points="399.48 86.48 411.03 86.48 411.03 32.8 411.23 32.8 447.39 86.48 458.74 86.48 458.74 12.78 447.19 12.78 447.19 65.36 446.99 65.36 412.13 12.78 399.48 12.78 399.48 86.48"></polygon><polygon id="Fill-8" class="cls-2" points="132.53 42.43 118.45 0 146.69 0 132.53 42.43"></polygon></g></g></svg> 